<?xml version="1.0" encoding="UTF-8"?>
<svg id="Layer_1" xmlns="http://www.w3.org/2000/svg" version="1.1" viewBox="0 0 864 576">
  <!-- Generator: Adobe Illustrator 30.1.0, SVG Export Plug-In . SVG Version: 2.1.1 Build 136)  -->
  <defs>
    <style>
      .st0 {
        fill: #3996d2;
      }

      .st1 {
        fill: #f4f4f5;
      }

      .st2 {
        fill: #3e96d2;
      }

      .st3 {
        fill: #231f1c;
      }
    </style>
  </defs>
  <rect class="st1" width="864" height="576"/>
  <g>
    <path class="st3" d="M200.62,358.23l7.31-17.89h1.46l7.25,17.89h-2.08l-6.29-15.78h.75l-6.37,15.78h-2.03ZM203.98,353.58v-1.66h9.36v1.66h-9.36Z"/>
    <path class="st3" d="M232.4,358.49c-1.14,0-2.17-.28-3.07-.83-.9-.55-1.61-1.31-2.13-2.27-.52-.96-.78-2.04-.78-3.24s.26-2.3.78-3.26c.52-.96,1.24-1.72,2.15-2.29.91-.56,1.93-.84,3.05-.84.9,0,1.73.18,2.48.54.75.37,1.37.88,1.86,1.55.48.67.78,1.45.88,2.35v3.82c-.1.88-.39,1.66-.87,2.33-.48.67-1.09,1.19-1.85,1.57-.75.38-1.59.57-2.51.57ZM232.71,356.75c.85,0,1.59-.2,2.24-.6.64-.4,1.14-.94,1.5-1.64.35-.69.53-1.49.53-2.39s-.18-1.72-.55-2.42c-.36-.69-.87-1.23-1.51-1.62-.64-.39-1.39-.58-2.24-.58s-1.6.2-2.25.6c-.65.4-1.17.95-1.55,1.64-.38.69-.57,1.49-.57,2.39s.19,1.7.56,2.4c.37.7.89,1.25,1.56,1.64.67.39,1.42.59,2.27.59ZM238.71,358.23h-1.85v-3.28l.39-3.02-.39-2.94v-9.18h1.85v18.41Z"/>
    <path class="st3" d="M255.22,358.23l-5.67-12.22h2.05l4.76,10.69h-1.17l4.81-10.69h1.98l-5.69,12.22h-1.07Z"/>
    <path class="st3" d="M277.61,358.49c-1.14,0-2.18-.28-3.09-.84-.92-.56-1.65-1.32-2.18-2.28s-.81-2.03-.81-3.22.27-2.3.81-3.26c.54-.96,1.26-1.72,2.17-2.29.91-.56,1.94-.84,3.08-.84.94,0,1.77.19,2.51.56.74.37,1.34.89,1.81,1.56.47.67.75,1.44.83,2.33v3.82c-.1.88-.39,1.66-.84,2.34s-1.05,1.2-1.78,1.57c-.73.37-1.56.56-2.5.56ZM277.89,356.75c1.28,0,2.31-.43,3.07-1.28.76-.85,1.14-1.97,1.14-3.35,0-.92-.17-1.72-.52-2.42s-.84-1.23-1.48-1.62c-.64-.39-1.39-.58-2.24-.58s-1.61.2-2.28.6-1.2.95-1.59,1.64c-.39.69-.58,1.49-.58,2.39s.2,1.7.58,2.39c.39.69.92,1.24,1.6,1.64.68.4,1.44.6,2.29.6ZM282,358.23v-3.28l.36-3.02-.36-2.94v-2.99h1.85v12.22h-1.85Z"/>
    <path class="st3" d="M296.07,358.23v-12.22h1.85v12.22h-1.85ZM304.98,358.23v-7.18c0-1.06-.32-1.92-.96-2.59s-1.48-1-2.52-1c-.69,0-1.31.15-1.85.46-.54.3-.96.72-1.27,1.26s-.47,1.15-.47,1.85l-.83-.47c0-.92.22-1.74.65-2.47.43-.73,1.02-1.3,1.77-1.72.75-.42,1.59-.62,2.52-.62s1.77.22,2.5.68,1.3,1.06,1.7,1.82c.41.76.61,1.59.61,2.5v7.49h-1.85Z"/>
    <path class="st3" d="M324.35,358.49c-1.2,0-2.28-.28-3.24-.84-.96-.56-1.72-1.33-2.27-2.3s-.83-2.05-.83-3.25.28-2.28.83-3.24c.55-.96,1.31-1.72,2.27-2.28s2.04-.83,3.24-.83c.94,0,1.8.17,2.6.52.8.35,1.47.83,2.03,1.46l-1.22,1.25c-.42-.47-.91-.83-1.49-1.08-.58-.25-1.22-.38-1.91-.38-.85,0-1.61.2-2.29.6s-1.21.94-1.59,1.62c-.38.69-.57,1.47-.57,2.35s.19,1.68.57,2.38c.38.7.91,1.25,1.59,1.65s1.44.6,2.29.6c.69,0,1.33-.12,1.92-.38.59-.25,1.1-.61,1.53-1.08l1.22,1.22c-.57.64-1.26,1.14-2.07,1.48-.81.35-1.68.52-2.61.52Z"/>
    <path class="st3" d="M345.54,358.49c-1.21,0-2.31-.28-3.28-.83-.97-.55-1.74-1.32-2.3-2.29s-.84-2.06-.84-3.28.27-2.28.82-3.24c.55-.96,1.29-1.72,2.25-2.28s2.02-.83,3.2-.83,2.12.25,2.98.75c.86.5,1.53,1.2,2.03,2.09.49.89.74,1.92.74,3.08,0,.14,0,.3-.03.48-.02.18-.05.39-.1.64h-10.58v-1.56h9.57l-.65.57c.02-.88-.13-1.65-.46-2.3-.32-.65-.78-1.16-1.38-1.52-.6-.37-1.31-.55-2.15-.55-.88,0-1.66.2-2.31.59-.66.39-1.17.93-1.55,1.61-.37.69-.56,1.49-.56,2.4s.2,1.76.59,2.47c.39.71.94,1.27,1.64,1.66s1.51.6,2.43.6c.73,0,1.4-.13,2.03-.4.62-.27,1.15-.67,1.58-1.21l1.2,1.2c-.57.69-1.28,1.22-2.13,1.59-.85.36-1.76.54-2.73.54Z"/>
    <path class="st3" d="M367.69,358.49c-1.14,0-2.17-.28-3.07-.83-.9-.55-1.61-1.31-2.13-2.27-.52-.96-.78-2.04-.78-3.24s.26-2.3.78-3.26c.52-.96,1.24-1.72,2.15-2.29.91-.56,1.93-.84,3.05-.84.9,0,1.73.18,2.48.54.75.37,1.37.88,1.86,1.55.48.67.78,1.45.88,2.35v3.82c-.1.88-.39,1.66-.87,2.33-.48.67-1.09,1.19-1.85,1.57-.75.38-1.59.57-2.51.57ZM368,356.75c.85,0,1.59-.2,2.24-.6.64-.4,1.14-.94,1.5-1.64.35-.69.53-1.49.53-2.39s-.18-1.72-.55-2.42c-.36-.69-.87-1.23-1.51-1.62-.64-.39-1.39-.58-2.24-.58s-1.6.2-2.25.6c-.65.4-1.17.95-1.55,1.64-.38.69-.57,1.49-.57,2.39s.19,1.7.56,2.4c.37.7.89,1.25,1.56,1.64.67.39,1.42.59,2.27.59ZM374.01,358.23h-1.85v-3.28l.39-3.02-.39-2.94v-9.18h1.85v18.41Z"/>
    <path class="st3" d="M398.97,358.23l7.25-18.36h3.72l7.2,18.36h-4.34l-5.49-15.21h1.51l-5.62,15.21h-4.24ZM403.13,354.93v-3.33h9.98v3.33h-9.98Z"/>
    <path class="st3" d="M427.65,358.23v-18.36h4.11v18.36h-4.11Z"/>
    <path class="st3" d="M456.79,342.09v-1.74h14.53v1.74h-14.53ZM463.11,358.23v-17.39h1.92v17.39h-1.92Z"/>
    <path class="st3" d="M484.69,358.49c-1.21,0-2.31-.28-3.28-.83-.97-.55-1.74-1.32-2.3-2.29s-.84-2.06-.84-3.28.27-2.28.82-3.24c.55-.96,1.29-1.72,2.25-2.28s2.02-.83,3.2-.83,2.12.25,2.98.75c.86.5,1.53,1.2,2.03,2.09.49.89.74,1.92.74,3.08,0,.14,0,.3-.03.48-.02.18-.05.39-.1.64h-10.58v-1.56h9.57l-.65.57c.02-.88-.13-1.65-.46-2.3-.32-.65-.78-1.16-1.38-1.52-.6-.37-1.31-.55-2.15-.55-.88,0-1.66.2-2.31.59-.66.39-1.17.93-1.55,1.61-.37.69-.56,1.49-.56,2.4s.2,1.76.59,2.47c.39.71.94,1.27,1.64,1.66s1.51.6,2.43.6c.73,0,1.4-.13,2.03-.4.62-.27,1.15-.67,1.58-1.21l1.2,1.2c-.57.69-1.28,1.22-2.13,1.59-.85.36-1.76.54-2.73.54Z"/>
    <path class="st3" d="M507.17,358.49c-1.2,0-2.28-.28-3.24-.84-.96-.56-1.72-1.33-2.27-2.3s-.83-2.05-.83-3.25.28-2.28.83-3.24c.55-.96,1.31-1.72,2.27-2.28s2.04-.83,3.24-.83c.94,0,1.8.17,2.6.52.8.35,1.47.83,2.03,1.46l-1.22,1.25c-.42-.47-.91-.83-1.49-1.08-.58-.25-1.22-.38-1.91-.38-.85,0-1.61.2-2.29.6s-1.21.94-1.59,1.62c-.38.69-.57,1.47-.57,2.35s.19,1.68.57,2.38c.38.7.91,1.25,1.59,1.65s1.44.6,2.29.6c.69,0,1.33-.12,1.92-.38.59-.25,1.1-.61,1.53-1.08l1.22,1.22c-.57.64-1.26,1.14-2.07,1.48-.81.35-1.68.52-2.61.52Z"/>
    <path class="st3" d="M522.96,358.23v-18.41h1.85v18.41h-1.85ZM531.87,358.23v-7.18c0-1.06-.32-1.92-.96-2.59s-1.48-1-2.52-1c-.69,0-1.31.15-1.85.46-.54.3-.96.72-1.27,1.26s-.47,1.15-.47,1.85l-.83-.47c0-.92.22-1.74.65-2.47.43-.73,1.02-1.3,1.77-1.72.75-.42,1.59-.62,2.52-.62s1.77.21,2.5.64,1.3,1.01,1.7,1.75c.41.75.61,1.61.61,2.6v7.49h-1.85Z"/>
    <path class="st3" d="M545.68,358.23v-12.22h1.85v12.22h-1.85ZM554.6,358.23v-7.18c0-1.06-.32-1.92-.96-2.59s-1.48-1-2.52-1c-.69,0-1.31.15-1.85.46-.54.3-.96.72-1.27,1.26s-.47,1.15-.47,1.85l-.83-.47c0-.92.22-1.74.65-2.47.43-.73,1.02-1.3,1.77-1.72.75-.42,1.59-.62,2.52-.62s1.77.22,2.5.68,1.3,1.06,1.7,1.82c.41.76.61,1.59.61,2.5v7.49h-1.85Z"/>
    <path class="st3" d="M573.97,358.49c-1.2,0-2.27-.29-3.22-.86-.95-.57-1.71-1.34-2.28-2.31s-.84-2.05-.84-3.25.28-2.24.84-3.2,1.32-1.71,2.28-2.28c.95-.56,2.03-.84,3.22-.84s2.25.28,3.21.83,1.72,1.31,2.29,2.28c.56.96.84,2.03.84,3.21s-.28,2.3-.84,3.26c-.56.96-1.33,1.73-2.29,2.3s-2.03.86-3.21.86ZM573.97,356.73c.85,0,1.61-.2,2.29-.6.68-.4,1.2-.95,1.59-1.66.38-.71.57-1.51.57-2.39s-.19-1.64-.58-2.33c-.39-.68-.92-1.23-1.59-1.62s-1.43-.6-2.27-.6-1.61.2-2.29.6-1.21.94-1.59,1.62c-.38.69-.57,1.46-.57,2.33s.19,1.7.57,2.41c.38.7.91,1.25,1.59,1.65s1.44.6,2.29.6Z"/>
    <path class="st3" d="M591.75,358.23v-18.41h1.85v18.41h-1.85Z"/>
    <path class="st3" d="M611.4,358.49c-1.2,0-2.27-.29-3.22-.86-.95-.57-1.71-1.34-2.28-2.31s-.84-2.05-.84-3.25.28-2.24.84-3.2,1.32-1.71,2.28-2.28c.95-.56,2.03-.84,3.22-.84s2.25.28,3.21.83,1.72,1.31,2.29,2.28c.56.96.84,2.03.84,3.21s-.28,2.3-.84,3.26c-.56.96-1.33,1.73-2.29,2.3s-2.03.86-3.21.86ZM611.4,356.73c.85,0,1.61-.2,2.29-.6.68-.4,1.2-.95,1.59-1.66.38-.71.57-1.51.57-2.39s-.19-1.64-.58-2.33c-.39-.68-.92-1.23-1.59-1.62s-1.43-.6-2.27-.6-1.61.2-2.29.6-1.21.94-1.59,1.62c-.38.69-.57,1.46-.57,2.33s.19,1.7.57,2.41c.38.7.91,1.25,1.59,1.65s1.44.6,2.29.6Z"/>
    <path class="st3" d="M634.39,358.11c-1.14,0-2.17-.27-3.07-.81-.9-.54-1.61-1.27-2.13-2.21-.52-.94-.78-1.99-.78-3.17s.26-2.23.78-3.16c.52-.93,1.23-1.66,2.13-2.2.9-.54,1.92-.8,3.04-.8.95,0,1.8.18,2.55.54.74.37,1.35.88,1.82,1.55.47.67.75,1.45.83,2.35v3.46c-.1.88-.39,1.66-.86,2.33-.47.67-1.07,1.19-1.81,1.56-.74.37-1.57.56-2.51.56ZM634.26,363.64c-1.23,0-2.33-.23-3.29-.69s-1.74-1.1-2.33-1.94l1.2-1.2c.49.66,1.1,1.17,1.85,1.54.75.36,1.61.54,2.6.54,1.4,0,2.51-.37,3.33-1.12.81-.75,1.22-1.76,1.22-3.04v-3.04l.36-2.78-.36-2.76v-3.15h1.85v11.72c0,1.18-.27,2.21-.81,3.09-.54.88-1.29,1.57-2.26,2.07s-2.09.74-3.35.74ZM634.72,356.36c.83,0,1.57-.18,2.21-.55.64-.36,1.13-.88,1.48-1.55.35-.67.52-1.45.52-2.35s-.18-1.63-.53-2.3c-.36-.67-.85-1.19-1.48-1.56s-1.37-.56-2.22-.56-1.61.19-2.28.56-1.19.89-1.56,1.56c-.37.67-.56,1.43-.56,2.3s.19,1.64.57,2.31c.38.68.9,1.2,1.56,1.57.66.37,1.42.56,2.29.56Z"/>
    <path class="st3" d="M657,358.31l-5.38-12.3h2.03l4.32,10.24h-.75l4.52-10.24h2.05l-5.75,12.3h-1.04ZM653.65,363.38l3.38-6.94,1.01,1.87-2.37,5.07h-2.03Z"/>
  </g>
  <path class="st2" d="M435.14,214.35c-2.38-2.28-5.37-3.42-8.97-3.42s-6.59,1.14-8.97,3.42c-2.38,2.28-3.57,5.13-3.57,8.53s1.19,6.25,3.57,8.54c2.38,2.28,5.37,3.42,8.97,3.42s6.59-1.14,8.97-3.42c2.38-2.28,3.58-5.13,3.58-8.54s-1.2-6.25-3.58-8.53Z"/>
  <path class="st3" d="M379.8,244.03v11.52c-2.72-3.69-6.34-6.76-10.87-9.19-4.52-2.42-9.8-3.64-15.82-3.64-6.9,0-13.15,1.7-18.74,5.1-5.59,3.4-10.02,8.27-13.28,14.58-3.25,6.32-4.88,13.57-4.88,21.74s1.63,15.58,4.88,21.95c3.26,6.37,7.68,11.3,13.28,14.8,5.59,3.5,11.78,5.25,18.6,5.25,6.03,0,11.35-1.23,15.97-3.71,4.62-2.48,8.24-5.61,10.87-9.41v11.81h20.57v-80.8h-20.57ZM376.88,297.2c-1.94,3.55-4.57,6.27-7.88,8.17-3.3,1.89-6.85,2.84-10.64,2.84s-7.17-.97-10.43-2.91c-3.26-1.95-5.88-4.74-7.88-8.39-1.99-3.65-2.99-7.9-2.99-12.76s1-9.07,2.99-12.62c1.99-3.54,4.59-6.25,7.8-8.1,3.21-1.84,6.71-2.77,10.51-2.77s7.34.95,10.64,2.85c3.31,1.89,5.93,4.62,7.88,8.17,1.95,3.54,2.92,7.8,2.92,12.76s-.97,9.21-2.92,12.76Z"/>
  <rect class="st3" x="415.97" y="244.03" width="20.42" height="80.8"/>
  <path class="st3" d="M494,260.81v-16.77h-18.08v-19.98h-20.57v19.98h-9.63v16.77h9.63v38.94c0,16.72,8.61,25.08,25.82,25.08h12.83v-17.21h-9.48c-3.11,0-5.32-.61-6.64-1.82-1.32-1.22-1.97-3.18-1.97-5.91v-39.08h18.08Z"/>
  <path class="st3" d="M579.46,282.68c0-7.88-1.68-14.85-5.03-20.93-3.35-6.08-8.07-10.77-14.14-14.07-6.08-3.31-12.96-4.96-20.64-4.96s-15.02,1.7-21.15,5.1c-6.13,3.4-10.9,8.27-14.29,14.58-3.41,6.32-5.1,13.66-5.1,22.03s1.72,15.55,5.18,21.88c3.45,6.32,8.26,11.2,14.44,14.65,6.17,3.45,13.14,5.18,20.93,5.18,9.62,0,17.74-2.5,24.35-7.51,6.61-5.01,11.09-11.4,13.42-19.18h-22.02c-3.21,6.52-8.61,9.77-16.19,9.77-5.25,0-9.68-1.65-13.27-4.96-3.6-3.31-5.64-7.88-6.13-13.71h59.07c.38-2.33.58-4.96.58-7.88ZM519.95,276.85c.78-5.44,2.89-9.7,6.35-12.76,3.45-3.06,7.71-4.59,12.76-4.59,5.35,0,9.87,1.58,13.57,4.74,3.69,3.16,5.59,7.37,5.69,12.62h-38.36Z"/>
  <path class="st3" d="M628.46,284.58l35.59-40.54h-26.55l-27.12,34.28v-61.4h-20.42v107.92h20.42v-34.42l27.42,34.42h26.54l-35.88-40.25Z"/>
  <path class="st3" d="M268.85,213.95h-20.41l-48.77,112.19h21.41c19.15-39.15,62.51-29.89,62.51-29.89l12.42,29.89h20.21l-47.36-112.19ZM238.65,283.61l19.56-47.53,16.95,40.49c-22.73-3.01-36.15,6.78-36.51,7.04Z"/>
  <path class="st0" d="M295.88,326.14l-12.3-29.89s16.4,5.4,25.98,14.14l6.65,15.75h-20.33Z"/>
</svg>